<?xml version="1.0" encoding="UTF-8" standalone="no"?>
<!-- Created with Inkscape (http://www.inkscape.org/) -->

<svg
   version="1.1"
   id="svg1"
   width="271.59052"
   height="65.831192"
   viewBox="0 0 271.59052 65.831191"
   xmlns="http://www.w3.org/2000/svg"
   xmlns:svg="http://www.w3.org/2000/svg">
  <defs
     id="defs1" />
  <g
     id="g1"
     transform="translate(-709.90619,-58.705709)">
    <path
       style="fill:#999999"
       d="M 710.17564,91.629616 V 58.989618 h 4 4 v 4 4 h 4.16 4.16 v 4 3.999999 h -4.16 -4.16 v 24.639999 24.640004 h -4 -4 z m 32.96,8 V 74.989617 h -4.16 -4.16 v -3.999999 -4 h 4.16 4.16 v -4 -4 h 4 4 v 32.639998 32.640004 h -4 -4 z m 32.96,4.320004 V 83.629617 h 4 4 v 3.999999 4 h 12.48 12.48 v -4 -3.999999 h 3.84 3.84 V 99.57902 c 0,8.77217 0.0943,17.91617 0.20961,20.32 l 0.20961,4.3706 h -4.04961 -4.04961 v -12.32 -12.320004 h -12.48 -12.48 v 12.320004 12.32 h -4 -4 z m -49.28,-20.480003 v -8.16 h 4 4 v 8.16 8.159999 h -4 -4 z m 57.28,-8.32 v -8.159999 h 4 4 v 8.159999 8.16 h -4 -4 z m 16.64,0 v -8.159999 h 4 4 v 8.159999 8.16 h -4 -4 z m -8.32,-12.399999 v -3.92 h 4 4 v 3.92 3.92 h -4 -4 z"
       id="path23" />
    <path
       style="fill:#999999"
       d="m 712.18895,124.35202 c 1.19532,-0.0617 3.06732,-0.0613 4.16,0.001 1.09268,0.0623 0.11469,0.11281 -2.17331,0.11225 -2.288,-5.6e-4 -3.18201,-0.0515 -1.98669,-0.11326 z m 32.96,0 c 1.19532,-0.0617 3.06732,-0.0613 4.16,0.001 1.09268,0.0623 0.11469,0.11281 -2.17331,0.11225 -2.288,-5.6e-4 -3.18201,-0.0515 -1.98669,-0.11326 z m 30.74958,-0.22371 c -0.0974,-0.25372 -0.10955,-0.72172 -0.0271,-1.04 0.0992,-0.3827 0.16252,-0.28388 0.18707,0.29174 l 0.0371,0.87044 4.08,0.10002 4.08,0.10001 -4.09005,0.0696 c -3.31286,0.0563 -4.12368,-0.0181 -4.26706,-0.39176 z m 32.98314,0.0603 c -0.0846,-0.22056 -0.11433,-5.87256 -0.066,-12.56 l 0.0879,-12.158994 0.076,12.390444 0.076,12.39043 4.08,0.10002 4.08,0.10001 -4.09005,0.0696 c -3.03511,0.0516 -4.12973,-0.0339 -4.24392,-0.33146 z m 7.93113,-23.03899 -0.0772,-17.520003 h -3.83044 -3.83044 l -0.1039,3.919999 -0.1039,3.92 0.0143,-4 0.0143,-3.999999 3.92624,-0.0899 c 2.96327,-0.06785 3.96473,0.01064 4.08315,0.32 0.0863,0.225445 0.11822,8.185899 0.0709,17.689903 l -0.086,17.28 z M 726.58716,90.189616 c 0.002,-0.88 0.0645,-1.20202 0.1381,-0.7156 0.0736,0.48642 0.0716,1.20642 -0.004,1.6 -0.076,0.39358 -0.13614,-0.0044 -0.13374,-0.8844 z m 51.52179,-6.797599 c 1.19531,-0.06174 3.06731,-0.06128 4.16,0.001 1.09268,0.0623 0.11469,0.112809 -2.17331,0.112249 -2.288,-5.6e-4 -3.18201,-0.05153 -1.98669,-0.113267 z m 14.13858,-8.4024 0.008,-8.159999 4.08048,-0.01494 4.08049,-0.01494 -3.9951,0.104457 -3.99511,0.104458 -0.0935,8.070479 -0.0935,8.070479 z m -65.64431,2.56 c 0,-1.32 0.0565,-1.86 0.12553,-1.2 0.069,0.66 0.069,1.74 0,2.4 -0.069,0.66 -0.12553,0.12 -0.12553,-1.2 z M 712.18895,58.752019 c 1.19532,-0.06174 3.06732,-0.06128 4.16,0.001 1.09268,0.0623 0.11469,0.112808 -2.17331,0.112249 -2.288,-5.6e-4 -3.18201,-0.05153 -1.98669,-0.113267 z m 32.96,0 c 1.19532,-0.06174 3.06732,-0.06128 4.16,0.001 1.09268,0.0623 0.11469,0.112808 -2.17331,0.112249 -2.288,-5.6e-4 -3.18201,-0.05153 -1.98669,-0.113267 z m 49.43923,3.47e-4 c 1.10689,-0.06267 2.83489,-0.06215 3.84,0.0012 1.0051,0.0633 0.0995,0.114571 -2.01254,0.113938 -2.112,-6.33e-4 -2.93436,-0.05242 -1.82746,-0.115088 z"
       id="path22" />
    <path
       style="fill:#999999"
       d="m 718.31716,115.30962 c 0,-5.192 0.044,-7.316 0.0978,-4.72 0.0538,2.596 0.0538,6.844 0,9.44 -0.0538,2.596 -0.0978,0.472 -0.0978,-4.72 z m 57.60888,-12.16 c 0,-10.824004 0.0402,-15.252004 0.0894,-9.840004 0.0492,5.412 0.0492,14.268004 0,19.680004 -0.0492,5.412 -0.0894,0.984 -0.0894,-9.84 z M 726.6228,84.269617 c 0,-2.552 0.0497,-3.596 0.11044,-2.32 0.0607,1.276 0.0607,3.364 0,4.64 -0.0607,1.275999 -0.11044,0.232 -0.11044,-2.32 z m 73.92444,-20.159999 c 0,-3.08 0.048,-4.34 0.10666,-2.8 0.0587,1.54 0.0587,4.06 0,5.6 -0.0587,1.54 -0.10666,0.28 -0.10666,-2.8 z m -82.24625,-1.28 c 0,-2.376 0.0504,-3.348 0.11194,-2.16 0.0616,1.188 0.0616,3.132 0,4.32 -0.0616,1.188 -0.11194,0.216 -0.11194,-2.16 z"
       id="path21" />
    <path
       style="fill:#999999"
       d="m 742.94517,119.30962 c 4.1e-4,-2.816 0.0494,-3.92517 0.10879,-2.46481 0.0594,1.46036 0.0591,3.76436 -7.4e-4,5.12 -0.0598,1.35564 -0.10845,0.16081 -0.10805,-2.65519 z m 8.30734,1.92 c 8.3e-4,-1.76 0.0546,-2.43918 0.11942,-1.50928 0.0648,0.9299 0.0642,2.3699 -0.002,3.2 -0.0657,0.8301 -0.11873,0.0693 -0.1179,-1.69072 z m -32.92158,-30.560004 0.005,-15.519999 12.16,-0.0057 12.16,-0.0057 -12.07693,0.0895 -12.07693,0.0895 -0.0878,15.4362 -0.0878,15.436203 z m 66.64471,9.048513 c 0.572,-0.07098 1.508,-0.07098 2.08,0 0.572,0.07098 0.104,0.129063 -1.04,0.129063 -1.144,0 -1.612,-0.05808 -1.04,-0.129063 z m 21.12573,-4.27e-4 c 0.57515,-0.07122 1.43915,-0.06975 1.92,0.0033 0.48084,0.07302 0.0103,0.131287 -1.04573,0.129491 -1.056,-0.0018 -1.44942,-0.06154 -0.87427,-0.132756 z M 800.552,76.429617 c 2.4e-4,-3.872 0.0465,-5.412018 0.10268,-3.422264 0.0562,1.989755 0.056,5.157754 -4.4e-4,7.04 -0.0565,1.882245 -0.10248,0.254264 -0.10224,-3.617736 z M 751.25997,62.669618 c 5.6e-4,-2.288 0.0515,-3.182011 0.11327,-1.986692 0.0617,1.19532 0.0613,3.06732 -10e-4,4.16 -0.0623,1.092681 -0.11281,0.114692 -0.11225,-2.173308 z m -8.32746,-0.64 c 8.3e-4,-1.76 0.0546,-2.439173 0.11942,-1.509273 0.0648,0.9299 0.0642,2.3699 -0.002,3.2 -0.0657,0.8301 -0.11873,0.06927 -0.1179,-1.690727 z"
       id="path20" />
    <path
       style="fill:#999999"
       d="m 751.27285,110.98962 c 2.2e-4,-4.048 0.0461,-5.65988 0.10191,-3.58195 0.0558,2.07793 0.0556,5.38993 -4.1e-4,7.36 -0.0561,1.97007 -0.10172,0.26995 -0.1015,-3.77805 z m -8.32041,-3.68 c 0,-3.96 0.0459,-5.58 0.10208,-3.6 0.0561,1.98 0.0561,5.22 0,7.2 -0.0561,1.98 -0.10208,0.36 -0.10208,-3.6 z m 49.2232,-7.599225 c 2.42,-0.05436 6.38,-0.05436 8.8,0 2.42,0.05436 0.44,0.09884 -4.4,0.09884 -4.84,0 -6.82,-0.04448 -4.4,-0.09884 z M 751.1609,75.762951 c 0.0154,-0.372782 0.0912,-0.448608 0.19333,-0.193334 0.0924,0.231 0.0811,0.507 -0.0253,0.613334 -0.10633,0.106333 -0.18196,-0.08267 -0.16807,-0.42 z m 0.10009,-4.933333 c 0,-2.376 0.0504,-3.348 0.11194,-2.16 0.0616,1.188 0.0616,3.132 0,4.319999 -0.0616,1.188 -0.11194,0.216 -0.11194,-2.159999 z m -8.38297,-4.96 c 0.007,-0.528 0.0782,-0.705259 0.15937,-0.39391 0.0811,0.31135 0.0758,0.74335 -0.0118,0.96 -0.0877,0.21665 -0.15404,-0.03809 -0.14752,-0.56609 z"
       id="path19" />
    <path
       style="fill:#999999"
       d="m 709.90617,123.62962 c 0,-0.44 0.0726,-0.62 0.1614,-0.4 0.0888,0.22 0.0888,0.58 0,0.8 -0.0888,0.22 -0.1614,0.04 -0.1614,-0.4 z m 41.37632,-33.600004 c 0,-7.655999 0.0418,-10.787999 0.0928,-6.959999 0.0511,3.828 0.0511,10.091999 0,13.919999 -0.051,3.828004 -0.0928,0.696 -0.0928,-6.96 z m -8.32118,-2.24 c 0,-6.951999 0.0423,-9.795999 0.0939,-6.319999 0.0517,3.476 0.0517,9.163999 0,12.639999 -0.0517,3.476 -0.0939,0.632 -0.0939,-6.32 z M 808.7609,67.736284 c -0.0139,-0.381333 -0.20526,-0.765964 -0.42526,-0.854736 -0.3133,-0.126419 -0.31113,-0.16688 0.01,-0.186667 0.48573,-0.02993 0.83898,0.742722 0.6054,1.32418 -0.0907,0.225806 -0.17629,0.09856 -0.19018,-0.282777 z m -22.02526,-0.983142 c 1.012,-0.0635 2.668,-0.0635 3.68,0 1.012,0.0635 0.184,0.115462 -1.84,0.115462 -2.024,0 -2.852,-0.05196 -1.84,-0.115462 z m 15.68,0 c 1.012,-0.0635 2.668,-0.0635 3.68,0 1.012,0.0635 0.184,0.115462 -1.84,0.115462 -2.024,0 -2.852,-0.05196 -1.84,-0.115462 z m -10.20819,-4.563524 c 0,-1.496 0.0551,-2.108 0.12249,-1.36 0.0674,0.748 0.0674,1.972 0,2.72 -0.0674,0.748 -0.12249,0.136 -0.12249,-1.36 z m -82.26029,-1.76 c 0.002,-0.88 0.0645,-1.20202 0.1381,-0.7156 0.0736,0.48642 0.0716,1.20642 -0.004,1.6 -0.076,0.39358 -0.13614,-0.0044 -0.13374,-0.8844 z"
       id="path18" />
    <path
       style="fill:#999999"
       d="m 709.98903,117.06962 c 3e-4,-3.344 0.0477,-4.66852 0.10537,-2.94338 0.0576,1.72514 0.0574,4.46114 -5.6e-4,6.08 -0.058,1.61885 -0.10512,0.20738 -0.10481,-3.13662 z m 74.99234,-33.671917 c 0.57515,-0.07122 1.43915,-0.06975 1.92,0.0033 0.48085,0.07302 0.0103,0.131287 -1.04573,0.129491 -1.056,-0.0018 -1.44942,-0.06154 -0.87427,-0.132756 z m 21.12,0 c 0.57515,-0.07122 1.43915,-0.06975 1.92,0.0033 0.48084,0.07302 0.0103,0.131287 -1.04573,0.129491 -1.056,-0.0018 -1.44942,-0.06154 -0.87427,-0.132756 z m 2.75962,-10.968086 c 0,-2.375999 0.0504,-3.347999 0.11194,-2.159999 0.0616,1.188 0.0616,3.131999 0,4.319999 -0.0616,1.188 -0.11194,0.216 -0.11194,-2.16 z M 709.9778,65.549618 c 6.4e-4,-2.112 0.0524,-2.934357 0.11509,-1.82746 0.0627,1.106897 0.0621,2.834897 -10e-4,3.84 -0.0633,1.005103 -0.11457,0.09946 -0.11394,-2.01254 z m 16.56578,2.64956 -0.0479,-1.190439 -4.08,-0.100014 -4.08,-0.100015 4.09004,-0.06955 c 4.45182,-0.0757 4.56734,-0.02888 4.30177,1.743422 -0.11523,0.76894 -0.14322,0.725792 -0.18387,-0.283408 z m 10.28537,-1.44716 c 1.19532,-0.06174 3.06732,-0.06128 4.16,10e-4 1.09268,0.0623 0.11469,0.112809 -2.17331,0.112249 -2.288,-5.6e-4 -3.18201,-0.05153 -1.98669,-0.113267 z m 55.34093,-1.0424 c 0,-0.616 0.0659,-0.868 0.14634,-0.56 0.0805,0.308 0.0805,0.812 0,1.12 -0.0805,0.308 -0.14634,0.056 -0.14634,-0.56 z"
       id="path17" />
    <path
       style="fill:#999999"
       d="m 784.18716,122.82962 c 0.002,-0.88 0.0645,-1.20202 0.1381,-0.7156 0.0736,0.48642 0.0716,1.20642 -0.004,1.6 -0.0759,0.39358 -0.13613,-0.004 -0.13373,-0.8844 z M 710.00665,90.189616 c 3e-5,-11.615999 0.04,-16.321524 0.0889,-10.456722 0.0488,5.864802 0.0488,15.368802 -6e-5,21.119996 -0.0489,5.7512 -0.0889,0.95273 -0.0888,-10.663274 z m 78.81745,-6.794718 c 0.75265,-0.0676 1.90465,-0.06665 2.56,0.0021 0.65534,0.06876 0.0395,0.124069 -1.36846,0.122906 -1.408,-0.0012 -1.9442,-0.05742 -1.19154,-0.125019 z m 12.95154,0.0016 c 0.66,-0.06904 1.74,-0.06904 2.4,0 0.66,0.06904 0.12,0.125524 -1.2,0.125524 -1.32,0 -1.86,-0.05649 -1.2,-0.125524 z m 7.0797,-3.44689 c 7.2e-4,-1.936 0.0534,-2.686742 0.11712,-1.668316 0.0637,1.018426 0.0631,2.602426 -10e-4,3.52 -0.0644,0.917574 -0.11653,0.08432 -0.11581,-1.851684 z M 726.611,72.109609 c 0,-1.672 0.0539,-2.356 0.11985,-1.52 0.0659,0.836 0.0659,2.203999 0,3.039999 -0.0659,0.836 -0.11985,0.152 -0.11985,-1.519999 z"
       id="path16" />
    <path
       style="fill:#999999"
       d="m 784.23285,114.18962 c 2.2e-4,-4.048 0.0461,-5.65988 0.10191,-3.58195 0.0558,2.07793 0.0556,5.38993 -4.1e-4,7.36 -0.056,1.97007 -0.10173,0.26995 -0.1015,-3.77805 z m -0.0322,-28.480003 c 10e-4,-1.232 0.0593,-1.696788 0.12853,-1.032863 0.0693,0.663926 0.0681,1.671926 -0.003,2.24 -0.0707,0.568074 -0.12737,0.02486 -0.12595,-1.207137 z"
       id="path15" />
    <path
       style="fill:#fd1414"
       d="M 841.69564,91.629616 V 58.989618 h 8.15999 8.16 v 3.83044 3.830439 l -4.08,0.08956 -4.08,0.08956 -0.0829,16.559999 -0.0829,16.559999 h 4.16287 4.16288 v 4.000005 4 h -4.16 -4.16 v 8.16 8.16 h -3.99999 -4 z m 24.63999,28.640004 v -4 h -4 -4 v -4 -4 h 4 4 v 4 4 h 4.16 4.16 v 4 4 h -4.16 -4.16 z m 32.96,0 v -4 h 4.16 4.16 V 91.469616 66.669618 h -4.16 -4.16 v -3.84 -3.84 h 12.32 12.32 v 3.84 3.84 h -4.16 -4.16 v 24.799998 24.800004 h 4.16 4.16 v 4 4 h -12.32 -12.32 z m 57.6,0 v -4 h 8.16 8.16 v 4 4 h -8.16 -8.16 z m -8.32,-28.640004 V 66.989618 h 4 4 v 24.639998 24.640004 h -4 -4 z m 24.96,0 V 66.989618 h 3.97496 3.97495 l -0.0395,24.639998 -0.0395,24.640004 h -3.93544 -3.93544 z m -115.2,4 v -4 h 4 4 v -8.159999 -8.16 h 4.20628 4.20627 l -0.204,2.16 c -0.1122,1.188 -0.20502,4.86 -0.20627,8.16 l -0.002,5.999999 h -4 -4 v 4 4 h -4 -4 z m 0,-24.639998 v -4 h 4 4 v 4 3.999999 h -4 -4 z m 98.56,-8.16 v -3.84 h 8.16 8.16 v 3.84 3.84 h -8.16 -8.16 z"
       id="path14" />
    <path
       style="fill:#f41313"
       d="m 845.68186,124.35509 3.98719,-0.1044 0.11346,-2.31054 0.11345,-2.31053 -0.0202,2.4 -0.0202,2.4 -4.08048,0.0149 -4.08049,0.0149 z m 22.65377,-0.003 c 1.188,-0.0616 3.132,-0.0616 4.32,0 1.188,0.0616 0.216,0.11194 -2.16,0.11194 -2.376,0 -3.348,-0.0504 -2.16,-0.11194 z m 36.93881,-0.002 c 3.37635,-0.0518 8.99235,-0.0519 12.48,-1.7e-4 3.48766,0.0517 0.72519,0.0941 -6.13881,0.0942 -6.864,9e-5 -9.71753,-0.0422 -6.34119,-0.094 z m 55.5223,5.4e-4 c 2.23361,-0.0549 5.97761,-0.0551 8.32,-3.3e-4 2.34239,0.0547 0.51489,0.0997 -4.06111,0.0999 -4.576,1.8e-4 -6.4925,-0.0446 -4.25889,-0.0995 z m -4.06407,-32.881034 0.003,-24.639998 h 8.32 8.32 l 0.003,24.799998 0.003,24.800004 -0.085,-24.720004 -0.085,-24.719998 h -8.15605 -8.15605 l -0.0849,24.559998 -0.0849,24.560004 z m -95.27704,16.564084 c 0.924,-0.0646 2.436,-0.0646 3.36,0 0.924,0.0646 0.168,0.11753 -1.68,0.11753 -1.848,0 -2.604,-0.0529 -1.68,-0.11753 z M 981.352,95.309616 c 2.4e-4,-3.872 0.0464,-5.412019 0.10268,-3.422264 0.0562,1.989754 0.056,5.157754 -4.4e-4,7.039999 -0.0565,1.882249 -0.10249,0.254265 -0.10224,-3.617735 z M 874.47156,84.909617 c 0,-3.784 0.0463,-5.332 0.10286,-3.44 0.0566,1.892 0.0566,4.988 0,6.879999 -0.0566,1.892 -0.10286,0.344 -0.10286,-3.439999 z m -24.63877,-16.159999 0.0228,-1.92 4.08049,-0.01494 4.08049,-0.01494 -3.98547,0.104385 -3.98546,0.104386 -0.11786,1.830551 -0.11787,1.830552 z m 51.46284,-1.997296 c 1.188,-0.06157 3.132,-0.06157 4.32,0 1.188,0.06157 0.216,0.111945 -2.16,0.111945 -2.376,0 -3.348,-0.05037 -2.16,-0.111945 z m 16.32,0 c 1.188,-0.06157 3.132,-0.06157 4.32,0 1.188,0.06157 0.216,0.111945 -2.16,0.111945 -2.376,0 -3.348,-0.05037 -2.16,-0.111945 z m -72.01888,-8.001669 c 2.23361,-0.05493 5.97761,-0.05508 8.32,-3.33e-4 2.34238,0.05475 0.51488,0.09969 -4.06112,0.09987 -4.57599,1.83e-4 -6.49249,-0.04461 -4.25888,-0.09954 z m 59.67769,-5.41e-4 c 3.37635,-0.05179 8.99235,-0.05186 12.48,-1.64e-4 3.48766,0.0517 0.72519,0.09407 -6.13881,0.09416 -6.864,9.1e-5 -9.71753,-0.04221 -6.34119,-0.094 z m 55.5223,5.41e-4 c 2.23361,-0.05493 5.97761,-0.05508 8.32,-3.33e-4 2.34239,0.05475 0.51489,0.09969 -4.06111,0.09987 -4.576,1.83e-4 -6.4925,-0.04461 -4.25889,-0.09954 z"
       id="path13" />
    <path
       style="fill:#e91212"
       d="m 849.82785,113.86962 c 3.4e-4,-3.168 0.0482,-4.42072 0.10642,-2.78382 0.0582,1.6369 0.0579,4.2289 -6.1e-4,5.76 -0.0585,1.5311 -0.10614,0.19182 -0.10581,-2.97618 z m 8.33285,-1.67952 0.0149,-4.08048 0.96,-0.0463 c 0.89322,-0.0431 0.89944,-0.0361 0.0894,0.10035 l -0.87059,0.14666 -0.10434,3.98014 -0.10435,3.98014 z m -8.31769,-26.960483 c 0,-8.008 0.0415,-11.284 0.0923,-7.28 0.0508,4.004 0.0508,10.555999 0,14.559999 -0.0508,4.004 -0.0923,0.728 -0.0923,-7.279999 z m 17.05262,-10.158076 c 1.452,-0.05929 3.828,-0.05929 5.28,0 1.452,0.05929 0.264,0.107807 -2.64,0.107807 -2.904,0 -4.092,-0.04851 -2.64,-0.107807 z m -8.75566,-4.081923 c 5.6e-4,-2.288 0.0515,-3.182012 0.11326,-1.986692 0.0617,1.195319 0.0613,3.067319 -10e-4,4.16 -0.0623,1.09268 -0.11281,0.114691 -0.11225,-2.173308 z m -0.0193,-9.92 c 10e-4,-1.232 0.0593,-1.696788 0.12853,-1.032862 0.0693,0.663925 0.0681,1.671925 -0.003,2.24 -0.0707,0.568074 -0.12737,0.02486 -0.12595,-1.207138 z"
       id="path12" />
    <path
       style="fill:#999999"
       d="m 784.21665,103.46962 c 0,-2.024 0.052,-2.852 0.11546,-1.84 0.0635,1.012 0.0635,2.668 0,3.68 -0.0635,1.012 -0.11546,0.184 -0.11546,-1.84 z m -0.0186,-13.760004 c 0,-1.144 0.0581,-1.612 0.12906,-1.04 0.071,0.572 0.071,1.508 0,2.08 -0.071,0.572 -0.12906,0.104 -0.12906,-1.04 z M 734.61997,70.989618 c 5.6e-4,-2.288 0.0515,-3.182012 0.11327,-1.986692 0.0617,1.195319 0.0613,3.067319 -10e-4,4.16 -0.0623,1.09268 -0.11281,0.114691 -0.11225,-2.173308 z"
       id="path11" />
    <path
       style="fill:#d11010"
       d="m 907.4479,91.629616 c 0,-13.639999 0.0394,-19.219999 0.0876,-12.399999 0.0482,6.82 0.0482,17.979999 0,24.800003 -0.0482,6.82 -0.0876,1.24 -0.0876,-12.400004 z m -49.31691,13.760004 c 0,-1.672 0.0539,-2.356 0.11986,-1.52 0.0659,0.836 0.0659,2.204 0,3.04 -0.0659,0.836 -0.11986,0.152 -0.11986,-1.52 z m -4.20484,-5.67904 4.07051,-0.09994 0.0999,-4.07051 0.0999,-4.07051 0.0696,4.070439 0.0695,4.070439 4.08,0.100015 c 2.244,0.05501 0.336,0.100014 -4.24,0.100014 -4.576,0 -6.48827,-0.04497 -4.24948,-0.09994 z m 5.94021,-24.637252 c 0.9299,-0.06485 2.3699,-0.06416 3.2,0.0015 0.8301,0.06568 0.0693,0.118734 -1.69073,0.117901 -1.76,-8.34e-4 -2.43917,-0.05457 -1.50927,-0.119416 z m -1.7483,-10.00371 c 0,-1.144 0.0581,-1.612 0.12906,-1.04 0.071,0.572 0.071,1.508 0,2.08 -0.071,0.572 -0.12906,0.104 -0.12906,-1.04 z m 98.51996,-5.28 c 0.007,-0.528 0.0782,-0.705259 0.15937,-0.393909 0.0811,0.311349 0.0758,0.743349 -0.0119,0.959999 -0.0876,0.216651 -0.15404,-0.03809 -0.14751,-0.56609 z"
       id="path10" />
    <path
       style="fill:#b70d0d"
       d="m 956.69996,120.26962 c 5.6e-4,-2.288 0.0515,-3.18202 0.11327,-1.9867 0.0617,1.19532 0.0613,3.06732 -10e-4,4.16 -0.0623,1.09268 -0.11281,0.1147 -0.11225,-2.1733 z M 915.76789,91.629616 c 0,-13.639999 0.0394,-19.219999 0.0876,-12.399999 0.0482,6.82 0.0482,17.979999 0,24.800003 -0.0482,6.82 -0.0876,1.24 -0.0876,-12.400004 z m -57.6651,9.600004 c 0,-0.792 0.0624,-1.116 0.13868,-0.72 0.0763,0.396 0.0763,1.044 0,1.44 -0.0763,0.396 -0.13868,0.072 -0.13868,-0.72 z m 2.24615,-34.477602 c 1.19532,-0.06174 3.06732,-0.06128 4.16,10e-4 1.09268,0.0623 0.11469,0.112809 -2.17331,0.112249 -2.288,-5.6e-4 -3.18201,-0.05153 -1.98669,-0.113267 z m 92.21473,0.0031 3.98901,-0.104412 0.10982,-3.031269 0.10982,-3.031268 -0.0183,3.120743 -0.0183,3.120744 -4.08048,0.01494 -4.08049,0.01494 z m 22.98527,-0.0031 c 1.19532,-0.06174 3.06732,-0.06128 4.16,10e-4 1.09268,0.0623 0.11469,0.112809 -2.17331,0.112249 -2.288,-5.6e-4 -3.18201,-0.05153 -1.98669,-0.113267 z m -2.2215,-5.2024 c 0,-1.496 0.0551,-2.108 0.1225,-1.36 0.0674,0.748 0.0674,1.972 0,2.72 -0.0674,0.748 -0.1225,0.136 -0.1225,-1.36 z"
       id="path9" />
    <path
       style="fill:#900909"
       d="m 973.34098,120.42962 c 0,-2.376 0.0504,-3.348 0.11195,-2.16 0.0616,1.188 0.0616,3.132 0,4.32 -0.0616,1.188 -0.11195,0.216 -0.11195,-2.16 z m -74.24101,-0.16 c 5.6e-4,-2.288 0.0515,-3.18202 0.11326,-1.9867 0.0617,1.19532 0.0613,3.06732 -10e-4,4.16 -0.0623,1.09268 -0.11281,0.1147 -0.11225,-2.1733 z m -47.07103,-12.2376 c 1.19532,-0.0617 3.06732,-0.0613 4.16,10e-4 1.09268,0.0623 0.11469,0.11281 -2.17331,0.11225 -2.288,-5.6e-4 -3.18201,-0.0515 -1.98669,-0.11326 z m 14.40585,-39.282402 c 0.002,-1.056 0.0615,-1.449421 0.13276,-0.874269 0.0712,0.575152 0.0697,1.439152 -0.003,1.92 -0.073,0.480848 -0.13128,0.01027 -0.12949,-1.045731 z m 32.66416,-5.92 c 0,-2.2 0.0511,-3.1 0.11361,-2 0.0625,1.1 0.0625,2.9 0,4 -0.0625,1.1 -0.11361,0.2 -0.11361,-2 z m 74.20384,2.56 c 0,-0.792 0.0624,-1.116 0.13868,-0.72 0.0763,0.396 0.0763,1.044 0,1.44 -0.0763,0.396 -0.13868,0.072 -0.13868,-0.72 z"
       id="path8" />
    <path
       style="fill:#720707"
       d="m 866.46099,112.10962 c 0,-2.376 0.0504,-3.348 0.11194,-2.16 0.0616,1.188 0.0616,3.132 0,4.32 -0.0616,1.188 -0.11194,0.216 -0.11194,-2.16 z m 0,-16.320004 c 0,-2.376 0.0504,-3.348 0.11194,-2.16 0.0616,1.188 0.0616,3.132 0,4.32 -0.0616,1.188 -0.11194,0.216 -0.11194,-2.16 z m -0.0178,-23.039999 c 0,-1.319999 0.0565,-1.859999 0.12552,-1.199999 0.069,0.66 0.069,1.739999 0,2.399999 -0.069,0.66 -0.12552,0.12 -0.12552,-1.2 z"
       id="path7" />
  </g>
</svg>
